<?xml version="1.0" encoding="iso-8859-1"?>
<!-- Generator: Adobe Illustrator 19.0.0, SVG Export Plug-In . SVG Version: 6.00 Build 0)  -->
<svg version="1.1" id="Layer_1" xmlns="http://www.w3.org/2000/svg" xmlns:xlink="http://www.w3.org/1999/xlink" x="0px" y="0px"
	 viewBox="0 0 480 480" style="enable-background:new 0 0 480 480;" xml:space="preserve">
<path style="fill:#02243E;" d="M240,480c-2.4,0-4-1.6-4-4V40c0-2.4,1.6-4,4-4s4,1.6,4,4v436C244,478.4,242.4,480,240,480z"/>
<circle style="fill:#ED7C8A;" cx="240" cy="20" r="20"/>
<path style="fill:#DD586F;" d="M240,0.8c11.2,0,20,8.8,20,20s-8.8,20-20,20"/>
<g>
	
		<ellipse transform="matrix(-0.5852 -0.8109 0.8109 -0.5852 361.1086 200.8129)" style="fill:#F4A6B4;" cx="231.916" cy="8.045" rx="3.2" ry="7.2"/>
	<path style="fill:#F4A6B4;" d="M226.4,16c0,0.8-0.8,1.6-1.6,1.6s-1.6-0.8-1.6-1.6c0-0.8,0.8-1.6,1.6-1.6S226.4,15.2,226.4,16z"/>
</g>
<path style="fill:#02243E;" d="M239.2,174.4c-1.6,0-3.2-0.8-3.2-2.4l-40-76c-0.8-1.6,0-4,1.6-5.6c1.6-0.8,4,0,5.6,1.6l40,76
	c0.8,1.6,0,4-1.6,5.6C240.8,174.4,240,174.4,239.2,174.4z"/>
<circle style="fill:#ED7C8A;" cx="193.6" cy="83.2" r="13.6"/>
<path style="fill:#DD586F;" d="M187.2,71.2c6.4-3.2,14.4-0.8,18.4,5.6c3.2,6.4,0.8,14.4-5.6,18.4"/>
<g>
	
		<ellipse transform="matrix(-0.8958 -0.4445 0.4445 -0.8958 315.9684 230.5537)" style="fill:#F4A6B4;" cx="185.012" cy="78.235" rx="2.4" ry="4.8"/>
	<circle style="fill:#F4A6B4;" cx="183.2" cy="84.8" r="0.8"/>
</g>
<path style="fill:#02243E;" d="M240.8,174.4c-0.8,0-1.6,0-1.6-0.8c-1.6-0.8-2.4-3.2-1.6-5.6l40-76c0.8-1.6,3.2-2.4,5.6-1.6
	c1.6,0.8,2.4,3.2,1.6,5.6l-40,76C243.2,173.6,241.6,174.4,240.8,174.4z"/>
<circle style="fill:#ED7C8A;" cx="286.4" cy="83.2" r="13.6"/>
<path style="fill:#DD586F;" d="M292.8,71.2c-6.4-3.2-14.4-0.8-18.4,5.6c-3.2,6.4-0.8,14.4,5.6,18.4"/>
<g>
	
		<ellipse transform="matrix(-0.8958 0.4445 -0.4445 -0.8958 594.9235 16.6623)" style="fill:#F4A6B4;" cx="295.508" cy="78.075" rx="2.4" ry="4.8"/>
	<circle style="fill:#F4A6B4;" cx="296.8" cy="84.8" r="0.8"/>
</g>
<path style="fill:#02243E;" d="M239.2,244.8c-1.6,0-3.2-0.8-3.2-2.4l-40-76c-0.8-1.6,0-4,1.6-5.6c1.6-0.8,4,0,5.6,1.6l40,76
	c0.8,1.6,0,4-1.6,5.6C240.8,244.8,240,244.8,239.2,244.8z"/>
<circle style="fill:#ED7C8A;" cx="193.6" cy="153.6" r="13.6"/>
<path style="fill:#DD586F;" d="M187.2,141.6c6.4-3.2,14.4-0.8,18.4,5.6c3.2,6.4,0.8,14.4-5.6,18.4"/>
<g>
	
		<ellipse transform="matrix(-0.8958 -0.4445 0.4445 -0.8958 284.6104 364.027)" style="fill:#F4A6B4;" cx="184.981" cy="148.648" rx="2.4" ry="4.8"/>
	<circle style="fill:#F4A6B4;" cx="183.2" cy="155.2" r="0.8"/>
</g>
<path style="fill:#02243E;" d="M240.8,244.8c-0.8,0-1.6,0-1.6-0.8c-1.6-0.8-2.4-3.2-1.6-5.6l40-76c0.8-1.6,3.2-2.4,5.6-1.6
	c1.6,0.8,2.4,3.2,1.6,5.6l-40,76C243.2,244,241.6,244.8,240.8,244.8z"/>
<circle style="fill:#ED7C8A;" cx="286.4" cy="153.6" r="13.6"/>
<path style="fill:#DD586F;" d="M292.8,141.6c-6.4-3.2-14.4-0.8-18.4,5.6c-3.2,6.4-0.8,14.4,5.6,18.4"/>
<g>
	
		<ellipse transform="matrix(-0.8958 0.4445 -0.4445 -0.8958 626.1071 150.2054)" style="fill:#F4A6B4;" cx="295.445" cy="148.502" rx="2.4" ry="4.8"/>
	<circle style="fill:#F4A6B4;" cx="296.8" cy="155.2" r="0.8"/>
</g>
<path style="fill:#02243E;" d="M239.2,315.2c-1.6,0-3.2-0.8-3.2-2.4l-40-76c-0.8-1.6,0-4,1.6-5.6c1.6-0.8,4,0,5.6,1.6l40,76
	c0.8,1.6,0,4-1.6,5.6C240.8,315.2,240,315.2,239.2,315.2z"/>
<circle style="fill:#ED7C8A;" cx="193.6" cy="224" r="13.6"/>
<path style="fill:#DD586F;" d="M187.2,212c6.4-3.2,14.4-0.8,18.4,5.6c3.2,6.4,0.8,14.4-5.6,18.4"/>
<g>
	
		<ellipse transform="matrix(-0.8958 -0.4445 0.4445 -0.8958 253.2525 497.5003)" style="fill:#F4A6B4;" cx="184.949" cy="219.061" rx="2.4" ry="4.8"/>
	<circle style="fill:#F4A6B4;" cx="183.2" cy="225.6" r="0.8"/>
</g>
<path style="fill:#02243E;" d="M240.8,315.2c-0.8,0-1.6,0-1.6-0.8c-1.6-0.8-2.4-3.2-1.6-5.6l40-76c0.8-1.6,3.2-2.4,5.6-1.6
	c1.6,0.8,2.4,3.2,1.6,5.6l-40,76C243.2,314.4,241.6,315.2,240.8,315.2z"/>
<circle style="fill:#ED7C8A;" cx="286.4" cy="224" r="13.6"/>
<path style="fill:#DD586F;" d="M292.8,212c-6.4-3.2-14.4-0.8-18.4,5.6c-3.2,6.4-0.8,14.4,5.6,18.4"/>
<g>
	
		<ellipse transform="matrix(-0.8958 0.4445 -0.4445 -0.8958 657.3513 283.7341)" style="fill:#F4A6B4;" cx="295.413" cy="218.929" rx="2.4" ry="4.8"/>
	<circle style="fill:#F4A6B4;" cx="296.8" cy="225.6" r="0.8"/>
</g>
<path style="fill:#02243E;" d="M239.2,385.6c-1.6,0-3.2-0.8-3.2-2.4l-40-76c-0.8-1.6,0-4,1.6-5.6c1.6-0.8,4,0,5.6,1.6l40,76
	c0.8,1.6,0,4-1.6,5.6C240.8,385.6,240,385.6,239.2,385.6z"/>
<circle style="fill:#ED7C8A;" cx="193.6" cy="294.4" r="13.6"/>
<path style="fill:#DD586F;" d="M187.2,282.4c6.4-3.2,14.4-0.8,18.4,5.6c3.2,6.4,0.8,14.4-5.6,18.4"/>
<g>
	
		<ellipse transform="matrix(-0.8958 -0.4445 0.4445 -0.8958 221.891 630.9888)" style="fill:#F4A6B4;" cx="184.917" cy="289.482" rx="2.4" ry="4.8"/>
	<circle style="fill:#F4A6B4;" cx="183.2" cy="296" r="0.8"/>
</g>
<path style="fill:#02243E;" d="M240.8,385.6c-0.8,0-1.6,0-1.6-0.8c-1.6-0.8-2.4-3.2-1.6-5.6l40-76c0.8-1.6,3.2-2.4,5.6-1.6
	c1.6,0.8,2.4,3.2,1.6,5.6l-40,76C243.2,384.8,241.6,385.6,240.8,385.6z"/>
<circle style="fill:#ED7C8A;" cx="286.4" cy="294.4" r="13.6"/>
<path style="fill:#DD586F;" d="M292.8,282.4c-6.4-3.2-14.4-0.8-18.4,5.6c-3.2,6.4-0.8,14.4,5.6,17.6"/>
<g>
	
		<ellipse transform="matrix(-0.8958 0.4445 -0.4445 -0.8958 688.6133 417.3387)" style="fill:#F4A6B4;" cx="295.381" cy="289.397" rx="2.4" ry="4.8"/>
	<circle style="fill:#F4A6B4;" cx="296.8" cy="296" r="0.8"/>
</g>
<path style="fill:#02243E;" d="M239.2,456c-1.6,0-3.2-0.8-3.2-2.4l-40-76c-0.8-1.6,0-4,1.6-5.6c1.6-0.8,4,0,5.6,1.6l40,76
	c0.8,1.6,0,4-1.6,5.6C240.8,456,240,456,239.2,456z"/>
<circle style="fill:#ED7C8A;" cx="193.6" cy="364.8" r="13.6"/>
<path style="fill:#DD586F;" d="M187.2,352.8c6.4-3.2,14.4-0.8,18.4,5.6c3.2,6.4,0.8,14.4-5.6,18.4"/>
<g>
	
		<ellipse transform="matrix(-0.8958 -0.4445 0.4445 -0.8958 190.5295 764.4773)" style="fill:#F4A6B4;" cx="184.886" cy="359.903" rx="2.4" ry="4.8"/>
	<circle style="fill:#F4A6B4;" cx="183.2" cy="366.4" r="0.8"/>
</g>
<path style="fill:#02243E;" d="M240.8,456c-0.8,0-1.6,0-1.6-0.8c-1.6-0.8-2.4-3.2-1.6-5.6l40-76c0.8-1.6,3.2-2.4,5.6-1.6
	c1.6,0.8,2.4,3.2,1.6,5.6l-40,76C243.2,455.2,241.6,456,240.8,456z"/>
<circle style="fill:#ED7C8A;" cx="286.4" cy="364.8" r="13.6"/>
<path style="fill:#DD586F;" d="M292.8,352.8c-6.4-3.2-14.4-0.8-18.4,5.6c-3.2,6.4-0.8,14.4,5.6,18.4"/>
<g>
	
		<ellipse transform="matrix(-0.8958 0.4445 -0.4445 -0.8958 719.8754 550.9433)" style="fill:#F4A6B4;" cx="295.35" cy="359.864" rx="2.4" ry="4.8"/>
	<circle style="fill:#F4A6B4;" cx="296.8" cy="366.4" r="0.8"/>
</g>
<g>
</g>
<g>
</g>
<g>
</g>
<g>
</g>
<g>
</g>
<g>
</g>
<g>
</g>
<g>
</g>
<g>
</g>
<g>
</g>
<g>
</g>
<g>
</g>
<g>
</g>
<g>
</g>
<g>
</g>
</svg>
