<svg width="16" height="16" viewBox="0 0 16 16" fill="none" xmlns="http://www.w3.org/2000/svg">
  <g clip-path="url(#clip0_992_1261)">
    <path d="M8.00005 3.5722C5.55858 3.5722 3.57227 5.55852 3.57227 7.99999C3.57227 10.4415 5.55858 12.4278 8.00005 12.4278C10.4415 12.4278 12.4278 10.4415 12.4278 7.99999C12.4278 5.55852 10.4415 3.5722 8.00005 3.5722ZM8.00005 11.1548C6.26048 11.1548 4.84523 9.73955 4.84523 7.99999C4.84523 6.26042 6.26048 4.84517 8.00005 4.84517C9.73958 4.84517 11.1548 6.26042 11.1548 7.99999C11.1548 9.73955 9.73958 11.1548 8.00005 11.1548Z" fill="#8BA07E" />
    <path d="M7.99978 3.03141C8.35128 3.03141 8.63628 2.74644 8.63628 2.39491V0.636469C8.63628 0.284969 8.35128 0 7.99978 0C7.64828 0 7.36328 0.284969 7.36328 0.6365V2.39494C7.36328 2.74644 7.64828 3.03141 7.99978 3.03141Z" fill="#8BA07E" />
    <path d="M11.9637 4.67313C12.1266 4.67313 12.2894 4.611 12.4137 4.48669L13.6571 3.24325C13.9057 2.99469 13.9057 2.59169 13.6571 2.34313C13.4086 2.09457 13.0056 2.09457 12.757 2.34313L11.5136 3.58657C11.265 3.83513 11.265 4.23813 11.5136 4.48669C11.6379 4.611 11.8008 4.67313 11.9637 4.67313Z" fill="#8BA07E" />
    <path d="M15.3637 7.36349H13.6053C13.2538 7.36349 12.9688 7.64846 12.9688 7.99999C12.9688 8.35153 13.2537 8.6365 13.6053 8.6365H15.3637C15.7152 8.6365 16.0002 8.35153 16.0002 7.99999C16.0002 7.64846 15.7152 7.36349 15.3637 7.36349Z" fill="#8BA07E" />
    <path d="M12.4137 11.5133C12.1652 11.2648 11.7621 11.2648 11.5136 11.5133C11.265 11.7619 11.265 12.1649 11.5136 12.4134L12.757 13.6569C12.8813 13.7812 13.0442 13.8433 13.207 13.8433C13.3699 13.8433 13.5329 13.7812 13.6571 13.6569C13.9056 13.4083 13.9056 13.0053 13.6571 12.7568L12.4137 11.5133Z" fill="#8BA07E" />
    <path d="M7.99978 12.9686C7.64828 12.9686 7.36328 13.2536 7.36328 13.6051V15.3635C7.36328 15.715 7.64825 16 7.99978 16C8.35131 16 8.63628 15.7151 8.63628 15.3635V13.6051C8.63628 13.2536 8.35128 12.9686 7.99978 12.9686Z" fill="#8BA07E" />
    <path d="M3.58611 11.5133L2.34267 12.7568C2.09411 13.0053 2.09411 13.4083 2.34267 13.6569C2.46695 13.7812 2.62986 13.8433 2.7927 13.8433C2.95555 13.8433 3.11848 13.7812 3.24273 13.6569L4.48617 12.4135C4.73473 12.1649 4.73473 11.7619 4.48617 11.5133C4.2377 11.2648 3.83467 11.2648 3.58611 11.5133Z" fill="#8BA07E" />
    <path d="M3.03141 7.99999C3.03141 7.64849 2.74644 7.36349 2.39491 7.36349H0.636469C0.284969 7.36349 0 7.64849 0 7.99999C0 8.35149 0.284969 8.6365 0.6365 8.6365H2.39494C2.74644 8.6365 3.03141 8.35149 3.03141 7.99999Z" fill="#8BA07E" />
    <path d="M3.58702 4.48668C3.7113 4.61096 3.87421 4.67312 4.03712 4.67312C4.19996 4.67312 4.3629 4.61096 4.48715 4.48671C4.73571 4.23815 4.73571 3.83515 4.48715 3.58659L3.24377 2.34312C2.99524 2.09459 2.59221 2.09456 2.34365 2.34312C2.09509 2.59168 2.09509 2.99468 2.34365 3.24324L3.58702 4.48668Z" fill="#8BA07E" />
  </g>
  <defs>
    <clipPath id="clip0_992_1261">
      <rect width="16" height="16" fill="white" />
    </clipPath>
  </defs>
</svg>