<svg width="16" height="16" viewBox="0 0 10 20" fill="none" xmlns="http://www.w3.org/2000/svg">
<path d="M4.48718 0.0253391C3.38034 0.216858 2.47009 0.94385 2.10256 1.93271L1.98718 2.23758L1.96581 7.00992L1.94444 11.7823L1.7094 11.966C0.641026 12.7985 0 14.0844 0 15.3899C0 17.1409 1.00855 18.673 2.68376 19.4665C4.18803 20.1778 5.81197 20.1778 7.31624 19.4665C8.99145 18.673 10 17.1409 10 15.3899C10 14.0844 9.35897 12.7985 8.2906 11.966L8.05556 11.7823L8.03419 7.00992L8.01282 2.23758L7.89744 1.93271C7.57692 1.06892 6.85043 0.404469 5.9188 0.126961C5.54274 0.0136127 4.84615 -0.033289 4.48718 0.0253391ZM5.48718 1.26044C5.94444 1.38942 6.36325 1.72165 6.57265 2.13205L6.68803 2.35484L6.7094 7.29916C6.73504 12.9548 6.68376 12.349 7.16239 12.6695C7.83761 13.1268 8.36752 13.8264 8.56838 14.5261C8.99573 16.0387 8.31197 17.5474 6.83761 18.3447C6.66239 18.4424 6.32479 18.5753 6.08974 18.6457C5.68376 18.7629 5.62821 18.7708 5 18.7708C4.3718 18.7708 4.31624 18.7629 3.91026 18.6457C2.96154 18.3643 2.18376 17.778 1.73932 16.9924C1.49573 16.5742 1.38462 16.2419 1.32906 15.7729C1.18376 14.5808 1.76068 13.3965 2.83761 12.6695C3.31624 12.349 3.26496 12.9548 3.2906 7.29916L3.31197 2.35484L3.42735 2.13205C3.55128 1.88581 3.85897 1.5614 4.09402 1.42851C4.47863 1.21354 5.05983 1.14318 5.48718 1.26044Z" fill="#8BA07E"/>
<path d="M4.7035 5.06355C4.6223 5.09872 4.51119 5.18862 4.45991 5.26288L4.36162 5.39577V9.44503V13.4943L4.05392 13.6311C3.22486 13.9946 2.72059 14.8545 2.85307 15.6831C3.02401 16.7658 4.13512 17.5357 5.31033 17.3833C6.16076 17.27 6.89153 16.6602 7.11803 15.8707C7.36162 15.0108 6.84879 14.022 5.95136 13.6311L5.64367 13.4943V9.44503V5.39577L5.54538 5.26288C5.42999 5.10263 5.20777 4.99319 5.00264 4.99319C4.92144 4.99319 4.78469 5.02446 4.7035 5.06355Z" fill="#8BA07E"/>
</svg>
