<svg width="16" height="16" viewBox="0 0 16 16" fill="none" xmlns="http://www.w3.org/2000/svg">
<path d="M5.05274 3.87367C1.93695 8.42104 1.43169 10.5684 2.90537 12.9684C5.43169 16.9263 10.5685 16.9263 13.0948 12.9684C14.5685 10.5684 14.0633 8.42104 10.9475 3.87367C9.47379 1.76841 8.12642 -1.14441e-05 8.00011 -1.14441e-05C7.87379 -1.14441e-05 6.52643 1.76841 5.05274 3.87367ZM9.89485 3.66315C12.3791 7.19999 13.0106 8.46315 13.0527 10.021C13.0527 12.9263 10.8633 15.1579 8.00011 15.1579C4.00011 15.1579 1.68432 10.9474 3.70537 7.3263C4.67379 5.59999 7.74748 1.30525 8.00011 1.30525C8.12642 1.30525 8.96853 2.35788 9.89485 3.66315Z" fill="#8BA07E"/>
<path d="M3.79004 10.3158C3.79004 11.4947 4.80057 13.1368 5.93741 13.7263C7.32688 14.4 8.42162 14.4842 8.42162 13.8947C8.42162 13.6421 8.04267 13.4737 7.57951 13.4737C6.44267 13.4737 4.63214 11.6632 4.63214 10.5263C4.63214 10.0632 4.46372 9.68421 4.21109 9.68421C4.00057 9.68421 3.79004 9.97895 3.79004 10.3158Z" fill="#8BA07E"/>
</svg>
