<svg width="24" height="24" viewBox="0 0 24 24" fill="none" xmlns="http://www.w3.org/2000/svg">
<g clip-path="url(#clip0_936_1312)">
<path d="M19.1838 13.461C18.8537 13.461 18.5285 13.3348 18.2761 13.0824C14.8104 9.62162 9.17991 9.62162 5.71424 13.0824C5.21429 13.5824 4.39884 13.5824 3.89889 13.0824C3.39894 12.5825 3.39894 11.767 3.89889 11.2671C8.36446 6.80152 15.6259 6.80152 20.0914 11.2671C20.5914 11.767 20.5914 12.5825 20.0914 13.0824C19.839 13.3348 19.509 13.461 19.1838 13.461Z" fill="#E4E016"/>
<path d="M15.7086 16.9315C15.3785 16.9315 15.0533 16.8053 14.8009 16.5529C14.0534 15.8054 13.0535 15.3928 11.9954 15.3928C10.9372 15.3928 9.93732 15.8054 9.18982 16.5529C8.68987 17.0529 7.87442 17.0529 7.37447 16.5529C6.87452 16.053 6.87452 15.2375 7.37447 14.7376C8.60736 13.5047 10.248 12.8251 11.9954 12.8251C13.7428 12.8251 15.3834 13.5047 16.6163 14.7424C17.1162 15.2424 17.1162 16.0578 16.6163 16.5578C16.3687 16.8053 16.0386 16.9315 15.7086 16.9315Z" fill="#E4E016"/>
<path d="M11.9952 21.0767C12.9415 21.0767 13.7086 20.3096 13.7086 19.3633C13.7086 18.417 12.9415 17.6499 11.9952 17.6499C11.0489 17.6499 10.2817 18.417 10.2817 19.3633C10.2817 20.3096 11.0489 21.0767 11.9952 21.0767Z" fill="#E4E016"/>
<path d="M22.7125 9.93222C22.3824 9.93222 22.0572 9.80602 21.8048 9.55362C16.3928 4.1464 7.59753 4.1464 2.19031 9.55362C1.69036 10.0536 0.874912 10.0536 0.374962 9.55362C-0.124987 9.05367 -0.124987 8.23821 0.374962 7.73826C3.48144 4.63178 7.60724 2.92322 12 2.92322C16.3928 2.92322 20.5186 4.63178 23.625 7.73826C24.125 8.23821 24.125 9.05367 23.625 9.55362C23.3678 9.80602 23.0377 9.93222 22.7125 9.93222Z" fill="#E6E6E6"/>
</g>
<defs>
<clipPath id="clip0_936_1312">
<rect width="24" height="24" fill="white"/>
</clipPath>
</defs>
</svg>
